<svg width="128" height="128" viewBox="0 0 128 128" fill="none" xmlns="http://www.w3.org/2000/svg">
    <path opacity="0.28" fill-rule="evenodd" clip-rule="evenodd" d="M64 128C99.3462 128 128 99.3462 128 64C128 28.6538 99.3462 0 64 0C28.6538 0 0 28.6538 0 64C0 99.3462 28.6538 128 64 128ZM102.423 80.4457C104.513 75.2318 105.588 69.6435 105.588 64H101.43C101.43 69.0792 100.461 74.1086 98.5804 78.8011C96.6994 83.4937 93.9424 87.7574 90.4667 91.3489C86.9911 94.9405 82.8649 97.7894 78.3237 99.7331C73.7825 101.677 68.9153 102.677 64 102.677C59.0847 102.677 54.2175 101.677 49.6763 99.7331C45.1351 97.7894 41.0089 94.9405 37.5333 91.3489C34.0576 87.7574 31.3006 83.4937 29.4196 78.8011C27.5385 74.1086 26.5704 69.0792 26.5704 64H22.4116C22.4116 69.6435 23.4873 75.2318 25.5773 80.4457C27.6673 85.6596 30.7307 90.3971 34.5925 94.3877C38.4544 98.3783 43.039 101.544 48.0848 103.703C53.1305 105.863 58.5385 106.975 64 106.975C69.4615 106.975 74.8695 105.863 79.9152 103.703C84.961 101.544 89.5456 98.3783 93.4075 94.3877C97.2693 90.3972 100.333 85.6597 102.423 80.4457Z" />
    <style>
        path { fill: #000; }
        @media (prefers-color-scheme: dark) {
            path { fill: #FFF; }
        }
    </style>
</svg>
    