<svg xmlns="http://www.w3.org/2000/svg" width="228" height="68">
    <g fill="none" fill-rule="nonzero">
        <path fill="#797878" d="M102.6 27.9l3.4-1-2.6.6z"/>
        <path fill="#575656" d="M123.8 33.2l-1.5-.6L120 35z"/>
        <path fill="#3B3B3B" d="M116 14.8l-3.2 1.3z"/>
        <path fill="#484747" d="M103.2 19.7l3-.1-3.6-.2z"/>
        <path fill="#424242" d="M110.7 15.7l-1.5-.2-2.8 1.2z"/>
        <path fill="#454545" d="M123.8 33.2l1-.7-2.5.1z"/>
        <path fill="#4C4B4B" d="M103.2 19.7l-.6-.3-3.4 1z"/>
        <path fill="#434242" d="M108 14.5l2.5-.8-3.5.7z"/>
        <path fill="#838181" d="M118.3 37.8l-.7-.7-.8.3z"/>
        <path fill="#404040" d="M116 14.8l4.3-2-4.4 2z"/>
        <path fill="#494949" d="M108 14.5h-1l-4.4.8z"/>
        <path fill="#757474" d="M118.3 37.8l2.4-1.4-3.1.7z"/>
        <path fill="#6C6B6B" d="M121.4 36.8l-.7-.4-2.4 1.4z"/>
        <path fill="#5D5C5C" d="M121.4 36.8l2.6-.7-3.3.3z"/>
        <path fill="#A8A7A7" d="M103.5 37.9l2.2-3.4-2.2 2z"/>
        <path fill="#6F6E6E" d="M117.5 9.5l-1.6 1-2.7 2z"/>
        <path fill="#706F6F" d="M98 26.8l1.8-2.3L97 27z"/>
        <path fill="#7C7B7B" d="M119.7 39l-1.1 1.8v.9z"/>
        <path fill="#AAA9A9" d="M105.8 40.3l4.4 1-1.5-.4z"/>
        <path fill="#4C4C4C" d="M105.2 13l.8-.4-1.6-.3z"/>
        <path fill="#8D8B8B" d="M118.6 41.7l-.4-.6-1.8.6z"/>
        <path fill="#5D5C5C" d="M111.4 11.6l-.2-.6-5.2 1.6z"/>
        <path fill="#828181" d="M118.6 41.7v-1l-.4.4z"/>
        <path fill="#666565" d="M111.4 11.6h.8l-1-.6z"/>
        <path fill="#9C9A9A" d="M99.4 34.6l1.5-2.2-3 1.5z"/>
        <path fill="#4D4C4C" d="M100 20l-.8.4-3 1.6z"/>
        <path fill="#A9A7A7" d="M103.5 37.9v-1.5l-1.8 1.5z"/>
        <path fill="#4C4C4C" d="M105.2 13l-.8-.7-3.4.5z"/>
        <path fill="#4C4B4B" d="M127.8 37.9l-.8-.7-3.4-.4z"/>
        <path fill="#6C6B6B" d="M98 26.8l-1 .2-3 2.4z"/>
        <path fill="#7D7C7C" d="M119.5 43l2-1.2-4.1 1.6z"/>
        <path fill="#767575" d="M123 42.4l-1.5-.6-2 1.2z"/>
        <path fill="#908F8F" d="M118.2 41.1l-2.7.7-1 1.7z"/>
        <path fill="#A9A8A8" d="M115.8 8.3l.7-.4-4.1-.3z"/>
        <path fill="#191919" d="M130 21l.4-.3-4.1.5z"/>
        <path fill="#A09E9E" d="M114.6 7.5h-2.2l-1.5 2z"/>
        <path fill="#222121" d="M129.7 33.5v-.3l-1.7 1.7z"/>
        <path fill="#858484" d="M98 29.3l-1.4 1 .2 2.6z"/>
        <path fill="#626161" d="M123 40.9l-1.3 1.2 1.2.3z"/>
        <path fill="#3C3B3B" d="M127.8 37.9l1.5-.4-2.3-.3z"/>
        <path fill="#626161" d="M123.6 38.7L123 41v1.5z"/>
        <path fill="#B5B3B3" d="M115.8 8.3l4-1-3.3.6z"/>
        <path fill="#4A4949" d="M127 37.2l-1.2.4L123 41z"/>
        <path fill="#ADABAB" d="M105.2 41.5l.5 1.8v-1.6z"/>
        <path fill="#A5A3A3" d="M107.6 42.9l2.2 1.2.3-.8z"/>
        <path fill="#A4A3A3" d="M109.8 44.1l2.4.1-2.1-1z"/>
        <path fill="#ADABAB" d="M104.4 40.5l.8 1 .5.2z"/>
        <path fill="#A1A0A0" d="M112.4 42.9l-1 2.4.8-1z"/>
        <path fill="#989797" d="M99.4 34.6L98 34 97 36z"/>
        <path fill="#AAA9A9" d="M108.7 41l-1.1 1.9-.6 1z"/>
        <path fill="#8A8989" d="M117.4 43.4l-1.2-.1-.1.4z"/>
        <path fill="#8F8D8D" d="M96.8 33l-.2-2.6-1.8 3.5z"/>
        <path fill="#141414" d="M131.2 31.3l-1.5 1.9v.3z"/>
        <path fill="#A6A4A4" d="M107.6 42.9l2.5.4-.3-.1z"/>
        <path fill="#2B2B2B" d="M130 21l3.6.4-3.2-.7z"/>
        <path fill="#9C9B9B" d="M111.3 45.3l2.5.4-2.5-1.7z"/>
        <path fill="#B6B4B4" d="M124.5 9.2h.4-2.4z"/>
        <path fill="#8C8B8B" d="M116.1 43.7l.1-.4-2 1.6z"/>
        <path fill="#151515" d="M133 23.2l.6-.2-2.7.1z"/>
        <path fill="#9F9D9D" d="M112.2 44.2l-1-.2-1.4 1.2z"/>
        <path fill="#959494" d="M113.3 45.6l2.1-1.8-3 .6z"/>
        <path fill="#2F2E2E" d="M129.3 37.5l-.8-.3-2.7.4z"/>
        <path fill="#7B7A7A" d="M120.3 44.5l-3.1.4h.4z"/>
        <path fill="#949292" d="M106.7 8l.2-1.6-2.5 2.2z"/>
        <path fill="#A8A7A7" d="M104.8 45l1-3.3-.8 2z"/>
        <path fill="#919090" d="M106.7 8l-2.3.6-2.3 1.2z"/>
        <path fill="#A3A1A1" d="M99.2 40.5l2.4 1.4-1.6-1.3z"/>
        <path fill="#747272" d="M120.3 44.5l2.2-.4-5.3.8z"/>
        <path fill="#817F7F" d="M117.6 44.8h-.4l-.8 2.1z"/>
        <path fill="#A09E9E" d="M110 43.3l-.2 1.9.8 1.3z"/>
        <path fill="#B1AFAF" d="M108.5 5.2L107 6.4l-.2 1.5z"/>
        <path fill="#C6C4C4" d="M124.5 9.2l1.6.2-1.2-.3z"/>
        <path fill="#888686" d="M96.8 33l-2 .9 1.3.6z"/>
        <path fill="#A6A4A4" d="M101.3 43.7l3.5 1.3-1-.7z"/>
        <path fill="#C6C4C4" d="M126.1 9.4h.4l-1.6-.3z"/>
        <path fill="#202020" d="M130.6 37.4l-2.1-.2.8.3z"/>
        <path fill="#979595" d="M111.3 44l1.7 3.3.8-.7z"/>
        <path fill="#A1A0A0" d="M105 43.8l1.3 2 1 1.2z"/>
        <path fill="#939292" d="M112.4 44.4l2.4 3.4-.5-2.3z"/>
        <path fill="#989797" d="M97.2 38.3L97 36l-.9 1.6z"/>
        <path fill="#A6A4A4" d="M100.8 42.1l.5 1.6 2.6.6z"/>
        <path fill="#3D3C3C" d="M127.9 40.8h-2l-.7 1.2z"/>
        <path fill="#A3A1A1" d="M98.2 39.5l1 1 .8.1z"/>
        <path fill="#A1A0A0" d="M106.2 44.3l-1.2-.5 2.3 3.2z"/>
        <path fill="#8F8D8D" d="M114.1 44.9l-.6 1v1.9z"/>
        <path fill="#A5A3A3" d="M103.9 44.3l.9.7 1.4-.7z"/>
        <path fill="#919090" d="M113.2 45.3l.3 2.5h1.3z"/>
        <path fill="#979696" d="M110.6 46.5l.5.4 1.3.2z"/>
        <path fill="#918F8F" d="M96.1 34.5l-1.3-.6 2.4 4.4z"/>
        <path fill="#848383" d="M116.4 46.9h1.2l-2.4-.3z"/>
        <path fill="#858383" d="M117.6 47l-1.4-.3h-1z"/>
        <path fill="#979595" d="M109.5 45.7l1 1.9 1.7-1.4z"/>
        <path fill="#9E9D9D" d="M108.4 45.3l2 2.3-.9-1.9z"/>
        <path fill="#979595" d="M110.4 47.6l2-.5-.2-.9z"/>
        <path fill="#888686" d="M116.4 46.9l-1.2-.3 1 1.3z"/>
        <path fill="#8E8D8D" d="M111.1 46.9l2.7-.3-.8-.1z"/>
        <path fill="#282828" d="M133 23.2l3.5-.4-3 .2z"/>
        <path fill="#888686" d="M115.2 46.6h1l-3.2-.1z"/>
        <path fill="#8E8C8C" d="M112.2 46.2l.2.9.6-.6z"/>
        <path fill="#818080" d="M117.6 47l1-1.5-2.4 1.2z"/>
        <path fill="#7B7A7A" d="M118.4 46.6l.2-1.1-1 1.4z"/>
        <path fill="#8D8C8C" d="M113 47.3l1.3-1.8-1.3 1z"/>
        <path fill="#8B8A8A" d="M113.5 47.8v-2l-.5.7z"/>
        <path fill="#9D9C9C" d="M106.2 44.3l1.1 2.7-.7-2.1z"/>
        <path fill="#CDCCCC" d="M110.9 5.4l-2.4-.2-2.2 2.2z"/>
        <path fill="#767575" d="M118.4 46.6l1-1.2-.8.1z"/>
        <path fill="#888787" d="M116.2 48l-1-1.4-2.2-.1z"/>
        <path fill="#D2D0D0" d="M110.9 5.4l-.4-.5-2 .3z"/>
        <path fill="#9F9E9E" d="M102.6 43.4l-1.8-1.3 2.8 3.4z"/>
        <path fill="#9E9C9C" d="M100 40.6l.8 1.5 1.8 1.3z"/>
        <path fill="#999898" d="M106.6 44.9l.7 2.1 1.4.6z"/>
        <path fill="#969494" d="M110.7 46.9l-1.2-1.2 1.6 1.6z"/>
        <path fill="#F5F3F3" d="M115 4.3l-1.3-.5 1.2 1.3z"/>
        <path fill="#131313" d="M130.6 37.4h2l-4.1-.2z"/>
        <path fill="#6D6C6C" d="M122.1 45.8l-2.7-.4-1 1.2z"/>
        <path fill="#8F8D8D" d="M97.2 38.3l-1-.7 1 1.1z"/>
        <path fill="#767575" d="M101.8 9.8l-1.7.8-1.5 1.6z"/>
        <path fill="#000" d="M133.6 29.9l.4 3.2.3 1.3z"/>
        <path fill="#D6D4D4" d="M126.1 9.4l1 .2-.6-.2z"/>
        <path fill="#4D4C4C" d="M126 44.1l.9-.2h-3.6z"/>
        <path fill="#969494" d="M106.6 44.9l2 2.7-.8-1.7z"/>
        <path fill="#EAE8E8" d="M113.4 4.4l-3 .5.5.5z"/>
        <path fill="#848282" d="M116.1 48.1l-.3-1.6H113z"/>
        <path fill="#929090" d="M107.8 45.9l.9 1.7 2.6-2z"/>
        <path fill="#8C8B8B" d="M111.3 45.7l1.2 2.4.5-1.6z"/>
        <path fill="#919090" d="M108.7 47.6l3.8.5-1.2-2.4z"/>
        <path fill="#939292" d="M110.7 46.9l.4.4 1.4.8z"/>
        <path fill="#858484" d="M115.2 47.4l.9-.5-3.1-.4z"/>
        <path fill="#5D5C5C" d="M98.6 12.2l1.5-1.6-4.1 1.5z"/>
        <path fill="#414141" d="M95 13.4L93.7 16l-.2.7z"/>
        <path fill="#959393" d="M97.3 38.7l-1.2-1 .2 3.7z"/>
        <path fill="#838181" d="M116 48l-.1-.1-3-1.4z"/>
        <path fill="#FFFEFE" d="M112.8 4.5l.6-.1-2.8.3z"/>
        <path fill="#414040" d="M93.5 16.6l.2-.7-1.2 1.6z"/>
        <path fill="#7E7D7D" d="M118.8 46.1l-2.7.8-1 .5z"/>
        <path fill="#5A5959" d="M123.3 44.2l-2.2 2.4 1-.8z"/>
        <path fill="#FFF" d="M121 6.4l2.1-.9-1-.7z"/>
        <path fill="#797878" d="M118.5 46.7l-2.7-.2.3 1.6z"/>
        <path fill="#888686" d="M111 49.2l1.6-2.1.4-.6z"/>
        <path fill="#7C7A7A" d="M118.8 46.1h-1l-1.7.8z"/>
        <path fill="#FFF" d="M121 5.9v.5l1.1-1.6z"/>
        <path fill="#828181" d="M114.1 47.8l2 .2-3.1-1.5z"/>
        <path fill="#858383" d="M112.3 46.9l1.1.9-.4-1.3z"/>
        <path fill="#6E6D6D" d="M119.6 47.5l1.8-1.1-3.6-.4z"/>
        <path fill="#000" d="M134 33.1l.1 1.8.2-.5z"/>
        <path fill="#8F8D8D" d="M110.7 47l-2.9-1.1 2.5 2.4z"/>
        <path fill="#8A8888" d="M111 47.7l-.7.6 2.7-1.8z"/>
        <path fill="#918F8F" d="M107.3 47.8l-.7.2 4.1-1z"/>
        <path fill="#B1AFAF" d="M104.1 7.2h-3.3l-1.6.4z"/>
        <path fill="#767575" d="M117 48.5l-.6-1-2.2-.4z"/>
        <path fill="#FFF" d="M116.3 5v-.2l-2.6-1z"/>
        <path fill="#616060" d="M123 45.8l-1.6.6-1.8 1.1z"/>
        <path fill="#919090" d="M103.6 45.8l3 2.2.7-.2z"/>
        <path fill="#FFF" d="M116 5h.3l-2.6-1.2z"/>
        <path fill="#8B8A8A" d="M110.7 47l-.4 1.3.7-.6z"/>
        <path fill="#5C5B5B" d="M98.6 12.2l-2.6-.1-1.4 1.6z"/>
        <path fill="#FFFEFE" d="M123.1 5.5l3 .8-.4-.3z"/>
        <path fill="#7C7B7B" d="M112.4 49.4l1-1.6-1-1z"/>
        <path fill="#171717" d="M130.7 38l-1 2 .6 2z"/>
        <path fill="#4C4B4B" d="M94.6 13.7L96 12l-3.2 1.7z"/>
        <path fill="#888787" d="M110.9 46.4l-1.2 1.4 2.9-.7-1.7-.7zm-1.2 1.4h1.3l1.6-.7-2.9.7z"/>
        <path fill="#898888" d="M97.3 38.7l-1 2.7V43z"/>
        <path fill="#7A7979" d="M113.5 49.2l-1.2-2.3.2 1.7z"/>
        <path fill="#FFFEFE" d="M126.2 6.3l.6.2-1.1-.5z"/>
        <path fill="#686767" d="M119.6 49l-3.2-1.4.6.9z"/>
        <path fill="#171717" d="M129.8 40l-1.9 2.3 2.4-.4z"/>
        <path fill="#6D6C6C" d="M135.1 17.8l-.2 1.3-.2 1.1z"/>
        <path fill="#FFF" d="M114.1 4l1.9 1-1.1-1.6zM120.3 4.6l.6 1.8v-.5z"/>
        <path fill="#7F7D7D" d="M113 47.6l-1.8 1.7 2.2-1.5z"/>
        <path fill="#272626" d="M128 42.3l1.2 1-.4-1.3z"/>
        <path fill="#E4E2E2" d="M106.2 5l1-1.4-3.4.7z"/>
        <path fill="#919090" d="M106.7 47.1l-3-1.3 3.6 2z"/>
        <path fill="#767575" d="M116.1 46.7l-.4 3 .3-1.7.1-1.3zm.3.9l-.3-.9-2 1.1 2.3-.2z"/>
        <path fill="#787777" d="M115.4 47.7l-2.9.9 3.4-.7z"/>
        <path fill="#4F4E4E" d="M134.7 20.2l.6 1.3 1.2 1.3z"/>
        <path fill="#FCF9F9" d="M108.7 4.7l-1.4-1-1 1.3z"/>
        <path fill="#FBF8F8" d="M126.8 6.5l-.5 1.4.9 1.7z"/>
        <path fill="#686767" d="M119.2 48.3l1.2-.1-1.5-.1z"/>
        <path fill="#373737" d="M93.5 16.6l-1 .9-.1 1.5z"/>
        <path fill="#B2B0B0" d="M102 7.4l2.1-.2-5 .4z"/>
        <path fill="#908F8F" d="M102.3 45.1l1.3.7 3 1.3z"/>
        <path fill="#4E4D4D" d="M135.3 21.5l2 3-.8-1.7z"/>
        <path fill="#858383" d="M111.5 49l-.6-2.6.1 2.8z"/>
        <path fill="#5D5C5C" d="M123 45.8h-.4l-1.2.6z"/>
        <path fill="#FFF" d="M113.4 4.3l-.6-2.2v2.4zM120 2.6l.3 2 .6 1.3z"/>
        <path fill="#818080" d="M111.5 49l-.5.2.2.1z"/>
        <path fill="#8A8989" d="M106.7 47.1l.6.7 1.3-1z"/>
        <path fill="#898888" d="M100.4 45.2h.4l1.2-1.6z"/>
        <path fill="#868585" d="M108.6 46.7l1.1 1.1 1.2-1.4z"/>
        <path fill="#8D8C8C" d="M102 43.6l-1.2 1.6 4 1.6z"/>
        <path fill="#8B8A8A" d="M108.6 46.7l-1.3 1.1h2.4z"/>
        <path fill="#3C3B3B" d="M92.8 13.8l.7 2.8.3.1z"/>
        <path fill="#FCFAFA" d="M108.7 4.7l.4-2-1.8 1z"/>
        <path fill="#818080" d="M113 47.6l-1.5 1.3-.3.4z"/>
        <path fill="#353434" d="M92.5 21.4l.4-1.4-3.4 3.7z"/>
        <path fill="#FFF" d="M115.6 4.2l.6.8z"/>
        <path fill="#8B8989" d="M134.4 17.3l.5 1.8.2-1.3z"/>
        <path fill="#4E4E4E" d="M122.8 44.9l.4 3.4-.2-2.5z"/>
        <path fill="#FDFAFA" d="M109 4.9l-.3-.2-2.5.3z"/>
        <path fill="#FFF" d="M119 2l1.3 2.6-.3-2z"/>
        <path fill="#A8A6A6" d="M134 14.2l-.3 1-.4 2.8z"/>
        <path fill="#FFF" d="M112.8 2l1.3 2 .8-.6z"/>
        <path fill="#CDCBCB" d="M104.5 3.8l-.7.5-1.9 3z"/>
        <path fill="#4B4B4B" d="M94.6 13.7l-1.8.1-.3.2z"/>
        <path fill="#828181" d="M107 47.8l-1.2 1 4.1-.8z"/>
        <path fill="#5A5A5A" d="M122.6 45.7l-2.3.6-1 2z"/>
        <path fill="#FFF" d="M126.2 6.3l1.7.7-1-.5z"/>
        <path fill="#7B7A7A" d="M108.3 48.8l3.2.1 1.5-1.3z"/>
        <path fill="#383838" d="M93.8 16.7l-.3-.1-1.1 2.4z"/>
        <path fill="#FFF" d="M110 3.4l-1-.7-.3 2zM110 3.4l1.7-1.9-2.6 1.2zM116.8 3.9l.7-2-1.3 3zM119 2l-.8.5 2.1 2z"/>
        <path fill="#696868" d="M116.4 49.7v-1.1l-.3-1.9z"/>
        <path fill="#FFF" d="M126.3 8l1 1 2.1-.1z"/>
        <path fill="#838181" d="M96.2 43l4.2 2.2.1-.2z"/>
        <path fill="#FFF" d="M112.3 3l-.6-1.5-1.6 2z"/>
        <path fill="#898787" d="M100.5 45v.2l1.5-1.6z"/>
        <path fill="#FFF" d="M111.7 2.4l-1.6 1-1.4 1.3z"/>
        <path fill="#787777" d="M94.1 38.9l.1-1.3-1 1.2z"/>
        <path fill="#BCBABA" d="M99.7 6.7l-.8.8 1.5-1.2z"/>
        <path fill="#FFF" d="M111.7 2.4l-3 2.3.3.2zM112.3 3l1.2 1-1.8-2.5zM114.4 2.2l-.5 1.5.2.3z"/>
        <path fill="#FEFBFB" d="M106.8 4.4l2.2.5-5-1.8z"/>
        <path fill="#FFF" d="M113.5 4l-1-2 1 2.3z"/>
        <path fill="#6A6969" d="M116.5 48.6l-1 .7.2.4z"/>
        <path fill="#FFFDFD" d="M106.8 4.4L103.9 3l-.4.9z"/>
        <path fill="#FFF" d="M116.4 2.2l2.5-.1-1.4-.2z"/>
        <path fill="#4B4A4A" d="M123.2 48.3l.5-1.4-1-1.2z"/>
        <path fill="#FFF" d="M111.1 3l.6-.6-2.7-.3z"/>
        <path fill="#7D7C7C" d="M105.3 48.9l.5-.1 1.2-1z"/>
        <path fill="#7B7A7A" d="M96 40l.2 3 1.3-.9z"/>
        <path fill="#FFF" d="M127.9 7l-2-1.2.4 2.1z"/>
        <path fill="#1F1E1E" d="M129.3 42.3l-2.1 2.8 2-1.8z"/>
        <path fill="#5A5959" d="M119.9 49.2l-1.5-.8-2 1.3z"/>
        <path fill="#737272" d="M93.2 38.8l2.9 1.2 2.2.8z"/>
        <path fill="#7D7C7C" d="M105.1 48.2l.2.7 1.7-1z"/>
        <path fill="#747373" d="M107.5 48.7h.8l1.3.1z"/>
        <path fill="#E9E7E7" d="M103.5 4l.4-.9-2 1.2z"/>
        <path fill="#0E0E0E" d="M132 42.9l-2.7-.6H128z"/>
        <path fill="#494949" d="M120 48.4l.7-.2-.4-2z"/>
        <path fill="#5E5D5D" d="M114 47.6l1.5 1.7 1-.7z"/>
        <path fill="#FFF" d="M111.1 3h.2l.4-.6z"/>
        <path fill="#5A5959" d="M118.4 48.4l-2 .2v1.1z"/>
        <path fill="#616161" d="M115 47.3l-.7 2.2 1.2-.2z"/>
        <path fill="#FFF" d="M125.8 5.5l-2.4-.3 4.5 1.8z"/>
        <path fill="#828181" d="M97.5 42.1l-1.3.9 4.3 2z"/>
        <path fill="#FFF" d="M117 3.6v.8l1.2-2z"/>
        <path fill="#777676" d="M104 46.8l1.3 2-.2-.6z"/>
        <path fill="#2C2B2B" d="M89.5 23.7l1.4 2.2v-.7z"/>
        <path fill="#FFF" d="M107.3 2.9l-3.8 1 1.3 1.8zM110.3 2.8l-1.3-.7-2.2 2.3z"/>
        <path fill="#000" d="M133.8 39.4l-2.8-.8-1.2 1.4z"/>
        <path fill="#FFF" d="M117 4.4l2.8-2.2-1.6.3z"/>
        <path fill="#FFF" d="M116.4 2.2l.6 1.4 2-1.5z"/>
        <path fill="#272626" d="M92.5 21.4l-3 2.3 2 1z"/>
        <path fill="#6D6C6C" d="M110.3 49l-.7-.2 3.5 1z"/>
        <path fill="#7B7A7A" d="M98.3 40.8l-2.2-.8 1.4 2.1z"/>
        <path fill="#FFF" d="M113 1.4l-.5.7 1 1.9zM113 1.4l1.4 2.6-.3-1.7zM113 1.4L110.1 3l1.8-.3z"/>
        <path fill="#FFF" d="M111.9 2.6l-1.8.3-1.5.7zM114.4 4l2.6.4v-.8z"/>
        <path fill="#494949" d="M118.3 47.3l1.6 2 .8-1z"/>
        <path fill="#484848" d="M137.6 25.7H136l-1.2.5z"/>
        <path fill="#FFF" d="M124.3 4.3l-1 .9 2.5.3z"/>
        <path fill="#393939" d="M136 25.8l1.2 4.2-.3-1.3z"/>
        <path fill="#FFF" d="M116.8 3.7l-2.4-.6 2.4.8z"/>
        <path fill="#5D5C5C" d="M118.4 48.4l-4.3-.8 2.4 1z"/>
        <path fill="#747373" d="M108.4 47l-3.3 1.2 2.4.5z"/>
        <path fill="#FFF" d="M114.1 2.3l.3 1.7 2.6-.4z"/>
        <path fill="#D6D4D4" d="M102 4.3l-2.3 2.4.3.5z"/>
        <path fill="#6B6A6A" d="M108.4 47l-1 1.7 2.9.3z"/>
        <path fill="#666565" d="M112.6 49.1l.5.8 1.2-.4z"/>
        <path fill="#FFF" d="M114.1 2.3l2.9 1.3-.6-1.4z"/>
        <path fill="#3A3A3A" d="M125.2 47h-1.5l-.5 1.3z"/>
        <path fill="#EFEDED" d="M104.8 5.7L103.5 4l.5 1.3z"/>
        <path fill="#6C6B6B" d="M112.6 49.1h-2.3l2.8.8z"/>
        <path fill="#B6B4B4" d="M133.7 15.1l.1 1.8.6.4z"/>
        <path fill="#FFF" d="M110.1 3l.2-.2-1.7.8zM113 1.4l3.8 2.3-2-2.2z"/>
        <path fill="#FFF" d="M113 1.4l1.4 1.7 2.4.6zM107.7 3l-.4-.1-2.5 2.8z"/>
        <path fill="#686767" d="M94.1 38.9l-.9-.1 3.4 2.5z"/>
        <path fill="#777676" d="M104.4 46.2l-.4.6 1.1 1.4z"/>
        <path fill="#FFF" d="M108.6 3.6l1.7-.8h-3z"/>
        <path fill="#EEECEC" d="M103.5 4l-1.6.3 2 1z"/>
        <path fill="#FFF" d="M113 1.4l1.4.8.2-1.3z"/>
        <path fill="#CFCDCD" d="M134.7 14l-.1-.2-.9 1.3z"/>
        <path fill="#000" d="M134 37.9h-.3l.1 1.5z"/>
        <path fill="#FFF" d="M110.4 1.8l-1.4.3 1.3.7z"/>
        <path fill="#FFF" d="M113 1.4l-2.6.4-.3 1.1z"/>
        <path fill="#666565" d="M115 47.3l-2.4 1.8 1.7.4z"/>
        <path fill="#7C7B7B" d="M100.5 44.3v.7l3.5 1.8z"/>
        <path fill="#ABA9A9" d="M100.4 6.3l-3 2 1.1 1.6z"/>
        <path fill="#000" d="M133.7 38l-2.7.6 2.8.8z"/>
        <path fill="#FFF" d="M123.4 5.2l-.3.6h2.9z"/>
        <path fill="#6D6C6C" d="M98.3 40.8l-.8 1.3 3.8 2.7z"/>
        <path fill="#B5B4B4" d="M133.8 17l1.7 1.4-1.1-1z"/>
        <path fill="#626161" d="M110.9 47.2l-.6 1.8 2.3.1z"/>
        <path fill="#4B4A4A" d="M118.3 47.3l-.2 2.2 1.8-.3z"/>
        <path fill="#6B6A6A" d="M110.9 47.2l-2.5-.2 1.9 2z"/>
        <path fill="#252525" d="M136 32l-.5-.7-.3 2.2z"/>
        <path fill="#393838" d="M123.9 46.1l-4 2.3 3.8-1.5z"/>
        <path fill="#2B2B2B" d="M91.6 18l2.2-1.3-3.4 2z"/>
        <path fill="#545353" d="M112.6 50.3l2.3-3-.8.3z"/>
        <path fill="#757373" d="M97.5 42.1l3 2.9v-.7z"/>
        <path fill="#FFF" d="M124.3 4.3l-3.2-1.5 2.3 2.4zM121.1 2.8l2 3 .3-.6z"/>
        <path fill="#505050" d="M94.6 13.3l-2 .7 1.7-.3z"/>
        <path fill="#6C6B6B" d="M104.4 46.2l.7 2 3.3-1.2z"/>
        <path fill="#706F6F" d="M95.6 10.3l-1 3 .6.3z"/>
        <path fill="#2B2B2B" d="M91.5 24.6l-2-1 1.3 1.6z"/>
        <path fill="#D7D5D5" d="M104 5.3l-2-1-2 3z"/>
        <path fill="#444343" d="M89.9 29.4l.2 2.9 1.8 2.4z"/>
        <path fill="#FFF" d="M113 1.4l3.5 2.1-1.2-.9z"/>
        <path fill="#C5C3C3" d="M100 7.2l.4-1-3.4 1z"/>
        <path fill="#FFF" d="M113 1.4l-1.8-.4 1.2.8z"/>
        <path fill="#5D5C5C" d="M94.7 37.5l-1.3-1.7-.1 4z"/>
        <path fill="#080808" d="M132 42.9l-1.4-.7h-1.3z"/>
        <path fill="#6F6E6E" d="M100.5 44.3l3.5 2.5.4-.6z"/>
        <path fill="#8D8B8B" d="M97.4 8.2l-1.8 2.1-1.6 2z"/>
        <path fill="#383838" d="M125.2 47L124 46l-.2.8z"/>
        <path fill="#040404" d="M135.3 36l-1.6 2 .3-.1z"/>
        <path fill="#FFF" d="M107.7 3l-2.9 2.7.6-.5z"/>
        <path fill="#282727" d="M127.5 46.3l-2.8-.7.5 1.4z"/>
        <path fill="#393939" d="M121 47.4h-2.7l1.7 1z"/>
        <path fill="#FFF" d="M113 1.4l3.8 2 .1-.3z"/>
        <path fill="#747373" d="M101.3 44.8l-3.8-2.7 3 2.2z"/>
        <path fill="#393838" d="M123.9 46.1l-3 1.3-1 1z"/>
        <path fill="#FFF" d="M111.6 1L109 2.7l.5 1zM113 1.4l-1.4-.3-1.1 2.4z"/>
        <path fill="#FFF" d="M113 1.4l-.1-.6-1.7 2.8zM121.2 2.3l-.1 2.3 3.2-.3zM123 5.8l5 2-2-2z"/>
        <path fill="#FFF" d="M121.1 2.8l-.1 2.6 2 .4z"/>
        <path fill="#000" d="M131 38.6l-1.6 1 2.6 3.3z"/>
        <path fill="#8E8C8C" d="M98.5 10l-1-1.8-3.5 4z"/>
        <path fill="#FFF" d="M116.9 3.1l1.3.6-1.1-2.2zM113 1.4l.5 2 .7.5z"/>
        <path fill="#FFF" d="M115.3 2.6l1.2 1 2.8-1.6zM113 1.4L112 2l1.6 1.4zM109.4 3.5l-.5-.9-3.5.7z"/>
        <path fill="#FFF" d="M110.5 3.5l1.1-2.4-2.2 2.4z"/>
        <path fill="#2C2B2B" d="M67.3 28.3l-1 .6.8.2z"/>
        <path fill="#515151" d="M95.2 13.6l-.6-.3-.3.4z"/>
        <path fill="#615F5F" d="M66.3 29.6l-1-.2 1 .2z"/>
        <path fill="#FFF" d="M117 1.5l1.2 2.2 3-.2z"/>
        <path fill="#5A5959" d="M111.8 49l.8.1 2.3-1.8z"/>
        <path fill="#FFF" d="M113 1.4l1.2 2.5 1.3.2zM119.3 2l.4.3h1.5z"/>
        <path fill="#454545" d="M136 25.8l-.2-.2 1.4 4.4z"/>
        <path fill="#FFF" d="M114.3 2l2.6 1.1.2-1.6z"/>
        <path fill="#FEFCFC" d="M131.1 10.4l-.6.4 1.6 1.5z"/>
        <path fill="#FFF" d="M113 1.4l.5 1.4 1-.8z"/>
        <path fill="#A3A1A1" d="M66.8 27.6l-.8.4 1.3.3z"/>
        <path fill="#FFF" d="M121.1 4.6l.2-1-.2-.8z"/>
        <path fill="#2C2B2B" d="M66.2 29v.6l.9-.5z"/>
        <path fill="#3C3B3B" d="M94.3 13.7l-1.8.3-.9 4z"/>
        <path fill="#444343" d="M90.4 30.2l-.5-.8 2 5.3z"/>
        <path fill="#080808" d="M64.8 28.7l.5.7 1 .2z"/>
        <path fill="#171717" d="M127.7 45l-1.7-.4 1.5 1.7z"/>
        <path fill="#353535" d="M137.2 30l-.4-1.4-.8 3.5z"/>
        <path fill="#FFF" d="M119.7 2.3l1.4 2.3.1-2.3z"/>
        <path fill="#FFF" d="M116.9 3.1l-.1.4 1.4.2-1.3-.6zm2.8-.8l-2.6-.8 4 3.1-1.4-2.3zM65.9 27.4l.1.6.8-.4z"/>
        <path fill="#A3A1A1" d="M66 28l.2 1 1.1-.7z"/>
        <path fill="#FFF" d="M116.5 3.5l3.2-1.2-.4-.3z"/>
        <path fill="#3C3B3B" d="M117.6 46.7l.5 2.8.2-2.2z"/>
        <path fill="#282828" d="M124.7 45.6l-.8.5 1.3.9z"/>
        <path fill="#080808" d="M66.2 29l-1.4-.3 1.5.9z"/>
        <path fill="#FFF" d="M128 7.7l.1-1.1-.9 2.5z"/>
        <path fill="#000" d="M133.7 38l-2 .4-.7.2z"/>
        <path fill="#292828" d="M90.8 25.2l-1.2 4 .3-.2z"/>
        <path fill="#6F6E6E" d="M103.4 45.4l-3-1 4 1.8z"/>
        <path fill="#C9C6C6" d="M65.9 27.4l-.9.5 1 .1z"/>
        <path fill="#2A2929" d="M65 27.9l-.2.8 1.4.2z"/>
        <path fill="#FFF" d="M109.4 3.5l-4-.2 1.6.5z"/>
        <path fill="#141414" d="M136.8 34.7l-1.5 1.3-1.1 1z"/>
        <path fill="#000" d="M129.4 39.5l1.2 2.7 1.4.7z"/>
        <path fill="#3C3B3B" d="M121 47.4l-3.4-.7.7.6z"/>
        <path fill="#FFF" d="M112.4 1.8l-1.2-.8-1 1.4z"/>
        <path fill="#878686" d="M136.5 18.5l-1.5 2.7 2 .3z"/>
        <path fill="#2A2929" d="M66 28l-1-.1 1.2 1z"/>
        <path fill="#363636" d="M89.9 29l-.3.2.8 1z"/>
        <path fill="#191919" d="M90.4 18.7l-1 3.9 1.7.8z"/>
        <path fill="#FFF" d="M118.2 3.7l1 .3 2-.5z"/>
        <path fill="#353535" d="M136.8 28.6l-1.3 2.7.5.8z"/>
        <path fill="#FFF" d="M121.3 3.5l-2.1.5 1.8 1.4zM113.4 29l-.4-.7-.7-.7z"/>
        <path fill="#171717" d="M126 44.6l-1.3 1 2.8.7z"/>
        <path fill="#FFF" d="M111.2 1l-2.4.2 1.5 1.2z"/>
        <path fill="#FFF" d="M111.2 3.6L113 .8 110 1.9z"/>
        <path fill="#A4A2A2" d="M135.5 18.4l1 .6v-.5z"/>
        <path fill="#626161" d="M98.3 42.2l-1.7-1 1.3 2.3z"/>
        <path fill="#FFF" d="M105.4 3.3v2l.6-2.4zM113.5 3.4L112 2l-.5 1.2zM114.4 2l-.9.8 2.8.6z"/>
        <path fill="#CFCDCD" d="M101 6.2l-4 1L99 9z"/>
        <path fill="#FFF" d="M111.2 3.6l-1-1.7-1.4-.7z"/>
        <path fill="#E4E2E2" d="M112.3 28v-.4l-1 .6z"/>
        <path fill="#E3E2E2" d="M111 28.7l1.3-.8-1 .3z"/>
        <path fill="#FFF" d="M112.4 1.8l-2.1.6 2.5 1.9z"/>
        <path fill="#060606" d="M130.6 42.2H126l1.6 2.8z"/>
        <path fill="#686767" d="M137 21.5v2.4l.6 1.8z"/>
        <path fill="#282828" d="M121.4 45.7l-.5 1.7 3-1.3z"/>
        <path fill="#FFF" d="M112.3 28l1 1-1-1.4z"/>
        <path fill="#605F5F" d="M107 48l-.1.7 4-1.5z"/>
        <path fill="#B6B4B4" d="M97 7.1l1.5 2.8.6 1z"/>
        <path fill="#3F3E3E" d="M116.8 47.5L116 49l2 .5z"/>
        <path fill="#3F3F3F" d="M117.6 46.7l-.8.8 1.3 2z"/>
        <path fill="#5E5E5E" d="M95.2 13.6h-.9l-1.8.6z"/>
        <path fill="#DCDADA" d="M113 29.5l.4-.6-1.1-1z"/>
        <path fill="#FFF" d="M110 2.4l-3 1.4 1.7-.2z"/>
        <path fill="#313030" d="M112.2 29.7l-.1.3 1-.5z"/>
        <path fill="#DAD8D8" d="M134.6 13.8l-2-.8 1.2 4z"/>
        <path fill="#5B5A5A" d="M112.2 29.7l-.9-.3.8.6z"/>
        <path fill="#4B4B4B" d="M94.7 37.5l-1.4 2.3 3.3 1z"/>
        <path fill="#282828" d="M124.7 45.6l-3.3.1 2.5.4z"/>
        <path fill="#9F9D9D" d="M111.3 29.4l1-.6H111z"/>
        <path fill="#9F9E9E" d="M112.3 28.8v-.9l-1.3.8z"/>
        <path fill="#403F3F" d="M94.3 13.7L91.6 18l2.6.1z"/>
        <path fill="#2A2A2A" d="M91.6 18l-1.2.7 1.5 3z"/>
        <path fill="#FFF" d="M114.4 2l1.9 1.4 2.2-2z"/>
        <path fill="#DCDADA" d="M112.3 28.8l.7.7-.7-1.6z"/>
        <path fill="#FFF" d="M113.5 2.8l2 1.3.2-2.5z"/>
        <path fill="#434242" d="M112.2 29.7l.8-.2-.7-.7z"/>
        <path fill="#5C5B5B" d="M99.6 44l-1.7-.5 3.6 2.4z"/>
        <path fill="#454444" d="M112.8 49.1l-.2 1.2L116 49z"/>
        <path fill="#FFF" d="M107 3.8l-1-1-.1 1.2z"/>
        <path fill="#181818" d="M112.2 29.7v-.9l-.9.6z"/>
        <path fill="#060606" d="M126.1 42.2v2.4l1.6.4z"/>
        <path fill="#4D4C4C" d="M112 49h-.2l.8 1.3z"/>
        <path fill="#323131" d="M90.4 30.2l1.5 4.5 3 1.5z"/>
        <path fill="#555" d="M103.6 46.2l3.3 2.5V48z"/>
        <path fill="#878686" d="M135 21.2l2 2.7v-2.4z"/>
        <path fill="#FFF" d="M108.7 3.6l-1.7.2-1.1.2zM131.1 10.4l-2.7-.2 2.1.6z"/>
        <path fill="#9B9999" d="M99 10.8l-.5-.9-3.5 1.2z"/>
        <path fill="#000" d="M129.4 39.5l-2.6 2.6h3.8z"/>
        <path fill="#FCFAFA" d="M105.4 5.2l-2.9-.8-.8 1.1z"/>
        <path fill="#2B2A2A" d="M121.6 46.7h-4l3.3.7z"/>
        <path fill="#FFF" d="M112.8 4.3l-2.5-1.9-.6 1.1z"/>
        <path fill="#515050" d="M98.3 42.2l-.4 1.3 1.7.6z"/>
        <path fill="#B6B4B4" d="M99 9l-2-1.9 2 3.7z"/>
        <path fill="#686767" d="M137 24l-.2 2.8.8-1.1z"/>
        <path fill="#E7E4E4" d="M101.7 5.5l.8-1-2.9 1.8z"/>
        <path fill="#191919" d="M91.9 21.8l-1.5-3.1.7 4.7z"/>
        <path fill="#575656" d="M96.6 40.7l-3.3-.9 5 2.4z"/>
        <path fill="#565555" d="M109.3 46.6l-5.7-.4 3.4 1.7z"/>
        <path fill="#141414" d="M91.1 23.4l-1.6-.8V25z"/>
        <path fill="#1C1B1B" d="M136.8 34.7l-4 2 2.5-.7z"/>
        <path fill="#5E5D5D" d="M94.3 14.1l1-.5-2.8.6z"/>
        <path fill="#DBD9D9" d="M99.6 6.3L99 9l2.6.2z"/>
        <path fill="#B3B2B2" d="M117.4 28.3l-.1-.4-1 1.4z"/>
        <path fill="#CAC9C9" d="M183.4 28.4l-.2.8-.1 1z"/>
        <path fill="#7C7B7B" d="M95 11l-1 1.3.3 1.8z"/>
        <path fill="#FFF" d="M118.4 29h.3l-1.4-1z"/>
        <path fill="#7B7A7A" d="M116.6 29.3h-.4l1.4 1z"/>
        <path fill="#080808" d="M117.6 30v.4l1-1.4z"/>
        <path fill="#2D2C2C" d="M135.5 31.3l-.9 1.7 2.2 1.7z"/>
        <path fill="#FFF" d="M125.7 4.7l-1 .8h3.2zM105.9 4V3l-2.5 2.6z"/>
        <path fill="#171717" d="M126 44.6l-4.2 2.5 3-1.5z"/>
        <path fill="#000" d="M126.8 42l-.7.2h4.5z"/>
        <path fill="#3F3E3E" d="M95 36.2l-3.1-1.5 1.8 2.4z"/>
        <path fill="#FFF" d="M110.1 2l-1.4 1.6 1.1-.2zM117.4 28.3l1 .7-1.1-1z"/>
        <path fill="#B2B2B2" d="M116.6 29.3l.8-1-1.2 1z"/>
        <path fill="#080808" d="M118.4 29l-.8 1 1-1z"/>
        <path fill="#7B7A7A" d="M117.6 30l-1-.7 1 1z"/>
        <path fill="#FFF" d="M118.5 1.5l-2.2 1.9 2.2-.4zM106 2.9l-4.3 2.6h1.7z"/>
        <path fill="#DAD8D8" d="M132.6 13l.9 3.2.3.7z"/>
        <path fill="#FFF" d="M110.3 2.4l-1.5-1.2 1 2.3z"/>
        <path fill="#4C4C4C" d="M112.8 49.1h-.8l.6 1.2z"/>
        <path fill="#FFF" d="M128.3 6.6l.1 3.6 2.7.2z"/>
        <path fill="#4C4C4C" d="M99.6 44l1.9 2 3.7 1.3z"/>
        <path fill="#CAC9C9" d="M183.2 29.7l.2-1.3-.3 1.7z"/>
        <path fill="#454444" d="M116.8 47.5l-4 1.6 3.3-.1z"/>
        <path fill="#F0EEEE" d="M101.7 5.5l-2 .8 1-.4z"/>
        <path fill="#3D3D3D" d="M136.8 28.6l-2.5 3 1.2-.3z"/>
        <path fill="#818080" d="M183.2 29.7l-.1.4 1.3.5z"/>
        <path fill="#FFF" d="M118.5 1.5V3l.7 1zM117.5 29.2l.9-.2-1-.7z"/>
        <path fill="#C5C4C4" d="M117.5 29.2l-.1-1-.8 1z"/>
        <path fill="#545353" d="M117.5 29.2l.1.8.8-1z"/>
        <path fill="#4A4949" d="M109.3 46.6l-2.3 1.3 5 1.2z"/>
        <path fill="#090909" d="M117.5 29.2h-.9l1 .8z"/>
        <path fill="#FFF" d="M115.7 1.6l-.8 1.5 3.3-1.3z"/>
        <path fill="#EBEAEA" d="M184 28.2l-.6.2-.2 1.3z"/>
        <path fill="#2B2B2B" d="M94.2 18.1l-2.6-.1.3 3.8z"/>
        <path fill="#242323" d="M89.9 29l.5 1.2 1.5 2.4z"/>
        <path fill="#3D3D3D" d="M134.3 31.6l.3 1.4.9-1.7z"/>
        <path fill="#FFF" d="M111.4 3.2l1.4 1 .9-2.4z"/>
        <path fill="#1B1B1B" d="M132.8 36.6l2 3 .5-3.6z"/>
        <path fill="#DBD9D9" d="M100.8 5.9l-1.2.4 2 3z"/>
        <path fill="#FFF" d="M121.4 3.5l3.3 2 1-.8zM124.7 5.5v2.4l3.2-2.4zM127.9 5.5L124.7 8l3.6-1.3z"/>
        <path fill="#F2EFEF" d="M130.7 10.5l2 2.5 1.9.8z"/>
        <path fill="#2D2C2C" d="M134.6 33l-1.8 3.6 4-2z"/>
        <path fill="gray" d="M185.1 30.3l-1.9-.6 1.2.9z"/>
        <path fill="#454545" d="M96.6 40.7l1.7 1.5v-1z"/>
        <path fill="#494949" d="M110.8 47.6l-1.5-1L112 49z"/>
        <path fill="#FFF" d="M121.4 3.5l-.8 2.4 4.1-.4z"/>
        <path fill="#EBEAEA" d="M184 29.1v-1l-.8 1.6z"/>
        <path fill="#5C5B5B" d="M136.8 26.8l-.2-1.3-.8.1z"/>
        <path fill="#FFF" d="M108.8 1.2l1 2.2v.1z"/>
        <path fill="#515050" d="M98.4 41.2l-.1 1 1.3 1.9z"/>
        <path fill="#FFF" d="M184.9 28.6h.5l-1.3-.4zM118.5 3l2.1 2.9.8-2.4z"/>
        <path fill="#000" d="M128.5 40l-1.7 2 2.6-2.5z"/>
        <path fill="#222" d="M184 29.1l-.8.6 2 .6z"/>
        <path fill="#FFF" d="M114.9 3l-.5-2-.6 1.5zM184.9 28.6l-.8-.4-.1.9z"/>
        <path fill="#F1EEEE" d="M103.4 5.5h-1.7l-1 .4z"/>
        <path fill="#3F3E3E" d="M110.8 47.6L112 49h.8z"/>
        <path fill="#161616" d="M89.4 26l.5 3 4.5 2.9z"/>
        <path fill="#FFF" d="M114.4 1l-3 2.2 3-.4z"/>
        <path fill="#908E8E" d="M135 21.2l-1.3.2L137 24z"/>
        <path fill="#F0EFEF" d="M184.9 28.6l.4 1 .1-1z"/>
        <path fill="#2C2C2C" d="M95 36.2l-1.3.9 2.7 2z"/>
        <path fill="#222" d="M185.3 29.5l-1.3-.4 1.1 1.2z"/>
        <path fill="#CECDCD" d="M184.9 28.6l-1 .5 1.4.4z"/>
        <path fill="#FFF" d="M118.5 3l-2.2-.4 4.3 3.3z"/>
        <path fill="#C3C1C1" d="M99 9v1.8l1 .2z"/>
        <path fill="#C4C2C2" d="M101.6 9.2L99 9l1 2z"/>
        <path fill="#3F3E3E" d="M114.3 48.9l-3.5-1.3 2 1.5z"/>
        <path fill="#080707" d="M91.1 23.4L89.5 25l1.7-.3z"/>
        <path fill="#000" d="M126.8 42l-2.5-.8 1.8 1z"/>
        <path fill="#4D4D4D" d="M135.8 25.6L135 29l1.8-.4z"/>
        <path fill="#A8A6A6" d="M99 10.8l-4 .3 2.2.1z"/>
        <path fill="#8B8A8A" d="M95 11l-.7 3.1 2.2-1.9z"/>
        <path fill="#FFF" d="M124.7 5.5l-3.6-.8 3.6 3.2z"/>
        <path fill="#1A1919" d="M91.9 21.8l-.8 1.6 3.5-.8z"/>
        <path fill="#060606" d="M124.7 44.6l-2.9 2.5 4.2-2.5z"/>
        <path fill="#FFF" d="M128.3 6.6l-1.7.8 1.8 2.8z"/>
        <path fill="#313131" d="M94.2 18.1l-2.3 3.7 1.2.2z"/>
        <path fill="#1A1A1A" d="M120.8 45.4l.8 1.3-.2-1z"/>
        <path fill="#060606" d="M126.1 42.2l-1.4 2.4h1.3z"/>
        <path fill="#080707" d="M89.5 25.1l-.1.8 4.4 2.3z"/>
        <path fill="#706F6F" d="M137 24l-2.3-2.3 2.1 5.1z"/>
        <path fill="#090909" d="M122.2 46l-1.4-.6 1 1.7z"/>
        <path fill="#4C4B4B" d="M102.4 44h-2.8l5.6 3.3z"/>
        <path fill="#E8E6E6" d="M100.8 5.9l.8 3.3 2.2-2.9z"/>
        <path fill="#080808" d="M94.6 22.6l-3.5.8v1.4z"/>
        <path fill="#FFF" d="M109.9 3.5h-.1l-2.4-.4z"/>
        <path fill="#383838" d="M96.4 39l-2.7-2 3 4.1z"/>
        <path fill="#242323" d="M94.4 31.9L90 29l2 3.6z"/>
        <path fill="#FFF" d="M124.7 8l2-.6 1.6-.8z"/>
        <path fill="#6D6C6C" d="M94.3 14.1l-1.8.1.8 2.1z"/>
        <path fill="#FFF" d="M113.7 1.8l-4 1.7L111 5zM113.8 2.5l.6.3h2.8z"/>
        <path fill="#ACABAB" d="M136.5 19l-4.2.4 2.7 1.8z"/>
        <path fill="#FFF" d="M118.2 1.8l-4.4.7 2.2 1.1z"/>
        <path fill="#313030" d="M110.1 45.2l.7 2.4 3.5 1.3z"/>
        <path fill="#FFF" d="M109.9 3.5l-2.5-.4 4.3 1.5z"/>
        <path fill="#4D4C4C" d="M135 29l-.7 2.6 2.5-3z"/>
        <path fill="#403F3F" d="M98.4 41.2l1.2 2.9 2.8-.1z"/>
        <path fill="#FBF9F9" d="M103.4 5.5l-2.6.4 2.3.8z"/>
        <path fill="#8B8A8A" d="M97.2 11.2l-2.2-.1 1.5 1.1z"/>
        <path fill="#FFF" d="M105.6 3.4l-1.6.8 4.2 2.5z"/>
        <path fill="#1F1F1F" d="M132.8 36.6l-.4.2 2.4 2.8z"/>
        <path fill="#161616" d="M93.8 28.2l-4.4-2.3 5 6z"/>
        <path fill="#FFF" d="M121 4.7l1.9 3.6 1.8-.4z"/>
        <path fill="#090909" d="M124.7 44.6l-2.5 1.4-.4 1z"/>
        <path fill="#E1DFDF" d="M132.6 13l.5 2.6.4.6z"/>
        <path fill="#FCF9F9" d="M104 4.2l-.6 1.3-.3 1.2z"/>
        <path fill="#C7C5C5" d="M133.5 16.2l-.3 1.2 3.3 1.6z"/>
        <path fill="#262626" d="M112.4 47l1.9 1.9 2.8-.2z"/>
        <path fill="#FFF" d="M126.6 7.4l.7 2 1.1.8z"/>
        <path fill="#000" d="M124.3 41.2l.4 3.4 1.4-2.4z"/>
        <path fill="#FAF7F7" d="M130.7 10.5l-2.2.4 4.1 2.1z"/>
        <path fill="#FFF" d="M107.4 3l-1.8.4 2.6 3.3z"/>
        <path fill="#3C3C3C" d="M102.4 44l2.8 3.3 2.5 1.2z"/>
        <path fill="#0E0E0E" d="M134.8 39.6l-2.4-2-.6.8z"/>
        <path fill="#3C3C3C" d="M110.1 45.2l-2.4 3.3 3-1z"/>
        <path fill="#1A1A1A" d="M93.1 22l-1.2-.2 2.7.8z"/>
        <path fill="#ADABAB" d="M132.3 19.4l1.4 2 1.3-.2z"/>
        <path fill="#313030" d="M134.6 33l-2.5.2.7 3.4z"/>
        <path fill="#A9A7A7" d="M100 11l-1-.2-1.8.4z"/>
        <path fill="#1F1F1F" d="M120.8 45.4l-5.1 2.9 5.9-1.6z"/>
        <path fill="#FFF" d="M127.3 9.5l1.2 1.4 2.2-.4z"/>
        <path fill="#1F1E1E" d="M115.7 48.3l1.4.4 4.5-2z"/>
        <path fill="#FFF" d="M111.7 4.6L107.4 3l2.4 2.3zM118.2 1.8L116 3.6l2.3-.2z"/>
        <path fill="#313030" d="M112.4 47l-2.3-1.8 4.2 3.7z"/>
        <path fill="#080808" d="M91.2 24.8l-1.7.3 4.3 3z"/>
        <path fill="#E2E0E0" d="M118 29v-.2l-1.4 1z"/>
        <path fill="#FFF" d="M94 30l-.2-.7-1-.5z"/>
        <path fill="#1E1E1E" d="M91.9 32.6l3 3.6.2-1.5z"/>
        <path fill="#2C2B2B" d="M95.1 34.7l-.1 1.5 1.4 2.8z"/>
        <path fill="#FFF" d="M118.8 30l.3.2-1-1.4z"/>
        <path fill="#0F0F0F" d="M132.4 37.6l-3.9 2.5 3.3-1.7z"/>
        <path fill="#FFF" d="M121 4.7l1 2.4.9 1.2zM114.4 2.8l.6 1.5 2.2-1.5z"/>
        <path fill="#777" d="M92.7 31.2h.1l.8-.3z"/>
        <path fill="#FFF" d="M118.3 3.4l3.6 3.7-.8-2.4z"/>
        <path fill="#4B4A4A" d="M117 29.7l-.4.1 1 1.4z"/>
        <path fill="#F9F6F6" d="M128.5 10.9l4.6 4.7-.5-2.6z"/>
        <path fill="#FFF" d="M118 29l.8 1-.8-1.2zM114.4 2.8l-.7-1 1.3 2.5z"/>
        <path fill="#0F0F0F" d="M117.8 45.8l-2.1 2.5 5.1-3z"/>
        <path fill="#FFF" d="M108.2 6.7L104 4.2l3 4.2z"/>
        <path fill="#000" d="M117.8 30.7l-.1.5 1.4-1z"/>
        <path fill="#DCDBDB" d="M91.5 30l1.2-.5-.7-.3z"/>
        <path fill="#E2E0E0" d="M117 29.7l1-.8-1.4 1z"/>
        <path fill="#FFF" d="M104 4.2l-.9 2.5 4 1.7z"/>
        <path fill="#2E2E2E" d="M106.2 46l1.5 2.5 2.4-3.3z"/>
        <path fill="#6D6C6C" d="M96.5 12.2l-2.2 2-1 2.1z"/>
        <path fill="#DCDCDC" d="M92.7 29.5l.1-.7-.8.4z"/>
        <path fill="#3C3C3C" d="M106.2 46l-3.8-2 5.3 4.5z"/>
        <path fill="#C3C3C3" d="M93.6 30.9l.5-.8-1.4-.6z"/>
        <path fill="#414141" d="M134.3 31.6l-3.3 2 3.6-.6z"/>
        <path fill="#FFF" d="M92.7 29.5l1.4.6-1.3-1.3z"/>
        <path fill="#E1DFDF" d="M133 15.6l.2 1.8.3-1.2z"/>
        <path fill="#FFF" d="M113.7 1.8L111 5l4-.7z"/>
        <path fill="#000" d="M118.8 30l-1 .7 1.3-.5z"/>
        <path fill="#4B4A4A" d="M117.8 30.7l-.8-1 .7 1.5z"/>
        <path fill="#FFF" d="M107.4 3l.8 3.7 1.6-1.3z"/>
        <path fill="#3E3D3D" d="M91.8 30.8l.9-.3-1.2-.5z"/>
        <path fill="#101010" d="M94.4 31.9l-2.5.7 4.6 2.8z"/>
        <path fill="#262626" d="M96.4 39l.3 2.1 5.6-.2z"/>
        <path fill="#0E0E0E" d="M92.7 31.2l1-.3-1-.4z"/>
        <path fill="#161515" d="M92.7 31.2v-.7l-.9.3z"/>
        <path fill="#FBF9F9" d="M118 29.7V29l-1 .8z"/>
        <path fill="#FFF" d="M118 29.7l.8.2-.8-1zM118.3 3.4l-2.3.2 6 3.5z"/>
        <path fill="#313030" d="M132 33.2l.4 3.6.4-.2z"/>
        <path fill="#3E3D3D" d="M92.7 30.5v-1l-1.2.5z"/>
        <path fill="#403F3F" d="M102 42.5l-3.6-1.3 4 2.8z"/>
        <path fill="#302F2F" d="M118 29.7h-1l.8 1z"/>
        <path fill="#C3C3C3" d="M92.7 30.5l1 .4-1-1.4z"/>
        <path fill="#525151" d="M118 29.7l-.2 1 1-.8z"/>
        <path fill="#000" d="M127.9 40.1l-3.6 1.1 2.5.9z"/>
        <path fill="#1F1F1F" d="M132.4 36.8v.8l2.4 2z"/>
        <path fill="#000" d="M128.5 40l-.6.1-1 2z"/>
        <path fill="#4E4D4D" d="M93.3 16.3l-.8-2 .2 5.5z"/>
        <path fill="#171717" d="M114.2 46.5l-1.8.5 3.3 1.3z"/>
        <path fill="#090808" d="M94.6 22.6l-3.4 2.2 5 2.7z"/>
        <path fill="#2F2F2F" d="M102 42.5l.4 1.5 3.8 2z"/>
        <path fill="#FFF" d="M111.7 4.6l-1.9.8 1.6 1.2zM117.2 2.8L115 4.3l2.8.6z"/>
        <path fill="#030303" d="M93.8 28.2l.6 3.7 1.3 1z"/>
        <path fill="#C7C5C5" d="M133.2 17.4l-.9 2 4.2-.4z"/>
        <path fill="#000" d="M124 44.2l-1.8 1.8 2.5-1.4-.8-.4zm-6.4-2l.2 3.6 4.4.2-4.6-3.9z"/>
        <path fill="#515050" d="M135 29l-.8-1.4v4z"/>
        <path fill="#000" d="M124.3 41.2l-.4 3 .8.4z"/>
        <path fill="#FFF" d="M127.3 9.5l-1-.2 2.2 1.6z"/>
        <path fill="#FDFAFA" d="M128.5 10.9l-.8 1.5 5.4 3.2z"/>
        <path fill="#111" d="M95.7 33l-1.3-1.1 2.1 3.5z"/>
        <path fill="#171616" d="M117.8 45.8l-3.6.7 1.5 1.8z"/>
        <path fill="#000" d="M91.2 24.8l2.6 3.4 1.1 1z"/>
        <path fill="#1E1D1D" d="M96.5 35.4l-4.6-2.8 3.2 2.1z"/>
        <path fill="#333232" d="M102.3 40.9l-5.6.2 5.3 1.4z"/>
        <path fill="#B6B4B4" d="M100 11l-2.8.2.6 2.2z"/>
        <path fill="#FFF" d="M108.2 6.7L107 8.4h2.5zM116 3.6l2.8 2.2 3.1 1.3zM109.8 5.4l-1.6 1.3 1.4 1.7z"/>
        <path fill="#2F2F2F" d="M105 44.4l-3-1.9 4.2 3.6z"/>
        <path fill="#949292" d="M133.7 21.4l-.2.7 1.2-.4z"/>
        <path fill="#F5F2F2" d="M107 8.4l-3.9-1.7.7 1.2z"/>
        <path fill="#000" d="M124 44.2l-6.4-2 4.6 3.8z"/>
        <path fill="#FFF" d="M117.2 2.8l.6 2.1 1 .9z"/>
        <path fill="#E5E3E3" d="M133 15.6l-4.5-.2 4.7 2z"/>
        <path fill="#000" d="M96.3 27.5l-5.1-2.7 3.7 4.3z"/>
        <path fill="#605F5F" d="M136.6 25.5l-3.6.2 2 3.3z"/>
        <path fill="#262626" d="M101.7 38.7l-5.3.3 5.9 1.9z"/>
        <path fill="#030303" d="M95 29.1l-1.2-1 2 4.8z"/>
        <path fill="#9B9999" d="M97.2 11.2l-.7 1 .8 4z"/>
        <path fill="#090909" d="M96.4 24.5l-1.8-2 1.7 5z"/>
        <path fill="#FCFAFA" d="M127.7 12.4l.8 3 4.6.2z"/>
        <path fill="#757474" d="M134.7 21.7l-2.5 2.3 4.4 1.5z"/>
        <path fill="#181818" d="M95.1 34.7l1.3 4.3 5.3-.3z"/>
        <path fill="#515050" d="M134.2 27.6l-3.2 6 3.3-2z"/>
        <path fill="#212121" d="M114.2 46.5l-4.2-1.2 2.4 1.7z"/>
        <path fill="#FFF" d="M126.6 7.2l-.3 2 1 .3zM126.3 9.3l1.4 3 .8-1.4zM111 5l.4 1.6 4-3z"/>
        <path fill="#363535" d="M82.3 30.5l.4.9.5.5z"/>
        <path fill="#DFDCDC" d="M103.8 6.3l-4.4 4 4.7-1.3z"/>
        <path fill="#202020" d="M105 44.4l1.2 1.7 3.8-.8z"/>
        <path fill="#525050" d="M84.4 31.6l-1.2.3h.4z"/>
        <path fill="#5E5D5D" d="M15.6 32l.6-.9.1-.3z"/>
        <path fill="#222121" d="M102.3 40.9l-.3 1.6 3 1.9z"/>
        <path fill="#B1AFAF" d="M132.3 19.4l.2.9 1.2 1.1z"/>
        <path fill="#7E7D7D" d="M96.5 12.2l-3.2 4.1 3.6-1.5z"/>
        <path fill="#201F1F" d="M132.4 36.8l-5.6 1.2 5.6-.4z"/>
        <path fill="#080808" d="M117.6 42.1l-4.7 1.2 5 2.5z"/>
        <path fill="#FEFAFA" d="M83.3 29.5l1 .5-.5-.6z"/>
        <path fill="#070707" d="M112.9 43.3l1.3 3.2 3.6-.7z"/>
        <path fill="#FFF" d="M123 30.9l-.5-.8-.8-.6z"/>
        <path fill="#000" d="M82.5 29.8l-.2.7.6.8z"/>
        <path fill="#0D0C0C" d="M84.7 30.8l-1.8.5 1.5.3z"/>
        <path fill="#5E5C5C" d="M15.7 31.7v.2l.6-1.1z"/>
        <path fill="#363535" d="M82.9 31.3l-.6-.8.9 1.4z"/>
        <path fill="#000" d="M127.9 40.1l-3.3.7-.3.4z"/>
        <path fill="#FFF" d="M14.5 29.6l1.7.3-.8-.4z"/>
        <path fill="#0D0C0C" d="M82.9 31.3l.3.6 1.2-.3z"/>
        <path fill="#B0AEAE" d="M132.5 20.3l1 1.8.2-.7z"/>
        <path fill="#313030" d="M132 33.2l-4.5 3 5 .6z"/>
        <path fill="#696868" d="M14.7 32h1v-.3z"/>
        <path fill="#424141" d="M92.7 19.8l.4 2.2 3 .4z"/>
        <path fill="#FFF" d="M109.8 5.4l-.2 3 2.2-1.9zM118.8 5.8l-1-.9 1.7 3.5z"/>
        <path fill="#E5E3E3" d="M128.5 15.4l2.6 1.4 2.1.6z"/>
        <path fill="#FFF" d="M16.3 30.8l-.1-1-1.7-.2z"/>
        <path fill="#9B9999" d="M97.8 13.4l-.6-2.2.1 5z"/>
        <path fill="#252424" d="M96.1 22.4l-3-.4 3.3 2.5z"/>
        <path fill="#757474" d="M132.2 24l.8 1.7 3.6-.2z"/>
        <path fill="#FFF" d="M118.8 5.8l.7 2.6 3.3-2.7z"/>
        <path fill="#A8A5A5" d="M83.3 29.5l-.8.3.4.5z"/>
        <path fill="#222121" d="M106.4 42.3l-4.1-1.4 2.7 3.5z"/>
        <path fill="#555353" d="M84.2 30l-1.3.3 1.8.5z"/>
        <path fill="#F5F4F4" d="M120.3 30.7l1.6-.7h-1.2l-.4.7zm1.6-.7l-.2-.5-1 .5h1.2z"/>
        <path fill="#CBCACA" d="M133.2 17.4l-2.1-.6 1.2 2.6z"/>
        <path fill="#DCD8D8" d="M83.3 29.5l-.4.8 1.3-.3z"/>
        <path fill="#605F5F" d="M93.3 16.3l-.6 3.5 5.3.9z"/>
        <path fill="#000" d="M83 30.3l-.5-.5.4 1.5z"/>
        <path fill="#555353" d="M83 30.3l-.1 1 1.8-.5z"/>
        <path fill="#FFF" d="M121.9 30l1 .9-1.2-1.4z"/>
        <path fill="#000" d="M14 31.7v-.3l-.2-.6z"/>
        <path fill="#484848" d="M121.7 31.9l-.2.2 1-.5z"/>
        <path fill="#757474" d="M121.7 31.9l-1-.4.8.6z"/>
        <path fill="#B6B5B5" d="M122.6 31.6l.3-.7-1-.9z"/>
        <path fill="#939292" d="M133.5 22l-1.3 2 2.5-2.3z"/>
        <path fill="#999797" d="M15.7 31.7l.6-1-2.4-.3z"/>
        <path fill="#202020" d="M110.5 44.6l-5.5-.2 5 1z"/>
        <path fill="#FDFBFB" d="M127.7 12.4l-2.3.8 3.1 2.2z"/>
        <path fill="#121212" d="M110.5 44.6l-.5.7 4.2 1.2-3.7-1.9zm2.4-1.3l-2.4 1.3 3.7 2-1.3-3.3z"/>
        <path fill="#1D1C1C" d="M14.7 32l-.7-.6v.3z"/>
        <path fill="#7F7D7D" d="M97.3 16.1l-.8-3.9.4 2.6z"/>
        <path fill="#FFF" d="M14 30.4l2.3.4-1.8-1.2zM122.8 5.7L125 7l1.7.2z"/>
        <path fill="#0F0F0F" d="M14.7 32l1-.3-1.7-.3z"/>
        <path fill="#FFF" d="M126.3 9.3l-.4.8 1.8 2.3z"/>
        <path fill="#121111" d="M106.4 42.3l-1.4 2 5.5.3z"/>
        <path fill="#313030" d="M127.5 36.2l-.7 1.8 5.6-1.2z"/>
        <path fill="#141414" d="M101.7 38.7l.6 2.2 4 1.4z"/>
        <path fill="#000" d="M119.8 40.5l-2.2 1.6 6.3 2z"/>
        <path fill="#868585" d="M120.7 31.5l1.1-.5-1.5-.3z"/>
        <path fill="#000" d="M14 31.4v-1l-.2.4z"/>
        <path fill="#C6C4C4" d="M99.4 10.3l-1.6 3.1 6.1-1.8z"/>
        <path fill="#1F1F1F" d="M126.8 38l2.3 3.2 3.3-3.6z"/>
        <path fill="#FFF" d="M122.8 5.7l-3.3 2.7 5.4-1.4z"/>
        <path fill="#878686" d="M121.8 31v-1l-1.5.7z"/>
        <path fill="#999797" d="M14 31.4l1.7.3-1.8-1.3z"/>
        <path fill="#232323" d="M121.7 31.9l.9-.3-.8-.6z"/>
        <path fill="#616060" d="M97 14.8l-3.7 1.5 4.7 4.4z"/>
        <path fill="#000" d="M121.7 31.9l.1-.9-1 .5z"/>
        <path fill="#B6B5B5" d="M121.8 31l.8.6-.7-1.6z"/>
        <path fill="#FFF" d="M125.9 10l-.5 3.2 2.3-.8zM109.6 8.4L106 7.3l3 2.5z"/>
        <path fill="#000" d="M95.7 33l.8 2.4.7-.3z"/>
        <path fill="#FFF" d="M126.6 7.2L125 7l1.4 2.3z"/>
        <path fill="#000" d="M95 29.1l.7 3.8 1.3-1.1z"/>
        <path fill="#C7C5C5" d="M104.1 9l-4.7 1.3 4.5 1.3z"/>
        <path fill="#000" d="M124.6 40.8l-4.8-.3 4.1 3.7z"/>
        <path fill="#FFF" d="M111.8 6.5l-2.2 1.9-.7 1.4zM117.8 5l-2.4-1.3 2.8 1.7z"/>
        <path fill="#CBC9C9" d="M131.1 16.8l1.4 3.5-.2-1z"/>
        <path fill="#8E8D8D" d="M33 30.3l-.2 1.4.4-.6z"/>
        <path fill="#FFF" d="M125 7l.9 3 .4-.7z"/>
        <path fill="#8D8C8C" d="M32.8 31.7l.3.4v-1z"/>
        <path fill="#FFF" d="M115.4 3.7l-4 2.9.9.6z"/>
        <path fill="#030202" d="M96.3 27.5L94.9 29l4.3 2.6z"/>
        <path fill="#424242" d="M98 20.7l-5.3-1 3.4 2.7z"/>
        <path fill="#EDEAEA" d="M103.8 7.9L104 9l3.9 2.7z"/>
        <path fill="#181818" d="M99.9 36.6l-4.8-1.9 6.6 4z"/>
        <path fill="#474747" d="M30.8 32.2l.8.3 1.5-.4z"/>
        <path fill="#EDEBEB" d="M106 7.3l-2.2.6 4.2 3.8z"/>
        <path fill="#FFF" d="M111.8 6.5l-3 3.3 4.3-.5z"/>
        <path fill="#030303" d="M107.7 41.5l2.8 3.1 2.4-1.3z"/>
        <path fill="#FFF" d="M125.9 10l-5.3-1.2 4.8 4.4zM32.2 30l-.1 1 .9-.7z"/>
        <path fill="#1C1C1C" d="M126.8 38l-4.8.3 7.1 2.9z"/>
        <path fill="#ABA9A9" d="M97.8 13.4l-.5 2.7 2.4-3.2z"/>
        <path fill="#ACABAB" d="M103.9 11.6l-6.1 1.8 2-.5z"/>
        <path fill="#FFF" d="M32 31l.8.7.2-1.4z"/>
        <path fill="#474747" d="M32.8 31.7l-2 .5 2.3-.1z"/>
        <path fill="#111" d="M107.7 41.5l-1.3.8 4.1 2.3z"/>
        <path fill="#B0AFAF" d="M132.5 20.3l-4.7.6 5.7 1.2z"/>
        <path fill="#747373" d="M97 14.8l1 5.9 3.3-3.1z"/>
        <path fill="#0B0B0B" d="M124.6 38.6v2.2l3.3-.7z"/>
        <path fill="#FFF" d="M125 7l-5.2.3 6 2.8z"/>
        <path fill="#191919" d="M96.4 24.5l-.1 3 2.4.7z"/>
        <path fill="#414141" d="M128.2 32.6l-.7 3.6 4.6-3z"/>
        <path fill="#616060" d="M133 25.7l-4.1.1 5.3 1.8z"/>
        <path fill="#FFF" d="M115.4 3.7l-3.1 3.5 5.9-1.8zM31.2 30.4l1-.4-1.5.3zM112.3 7.2l-.5-.7 1.3 2.8zM119.8 7.3l.8 1.5 5.3 1.3z"/>
        <path fill="#515050" d="M134.2 27.6l-3.3 2 .1 4z"/>
        <path fill="#FFF" d="M31.2 30.4l.9.6v-1z"/>
        <path fill="#232222" d="M30.6 31.4l.2.8 2-.5z"/>
        <path fill="#CBC9C9" d="M131.1 16.8l-2.1-.2 3.5 3.7z"/>
        <path fill="#D6D4D4" d="M104.1 9l-.2 2.6.6-.7z"/>
        <path fill="#232222" d="M32 31l-1.4.4 2.2.3z"/>
        <path fill="#7F7F7F" d="M31.2 30.4h-.5l-.1 1z"/>
        <path fill="#0A0A0A" d="M97.2 35.1l-.7.3 3.4 1.2z"/>
        <path fill="#000" d="M97 31.8l-1.3 1.1 1.5 2.2z"/>
        <path fill="#050505" d="M99.9 36.6l1.8 2.1 2.7 2.6z"/>
        <path fill="#030303" d="M104.4 41.3l2 1 1.3-.8z"/>
        <path fill="#000" d="M99.2 31.7L94.9 29l2.1 2.7z"/>
        <path fill="#939292" d="M133.5 22l-5.8 1 4.5 1z"/>
        <path fill="#757474" d="M101.5 15.3l-4.6-.5 4.4 2.8z"/>
        <path fill="#B6B5B5" d="M31.2 30.4l-.6 1L32 31z"/>
        <path fill="#D7D5D5" d="M108 11.7L104 9l.4 2z"/>
        <path fill="#373737" d="M96.1 22.4l.3 2 3-1.3z"/>
        <path fill="#908F8F" d="M99.7 12.9l-2.4 3.2 4.2-.8z"/>
        <path fill="#2D2D2D" d="M127.5 36.2l-3.9-2 3.2 3.8z"/>
        <path fill="#FFF" d="M112.3 7.2l.8 2.1 4.5.8z"/>
        <path fill="#CBC9C9" d="M129 16.6l-1.2 4.3 4.7-.6z"/>
        <path fill="#FFF" d="M113.1 9.3l-4.2.5 3.2 2.3z"/>
        <path fill="#060505" d="M103.1 36.5l-3.2.1 4.5 4.7z"/>
        <path fill="#757474" d="M132.2 24l-5 1.4 5.8.3z"/>
        <path fill="#B0AFAF" d="M127.8 21l-.1 2 5.8-1z"/>
        <path fill="#E4E2E2" d="M128.1 14.5l.9 2 2.1.3z"/>
        <path fill="#FFF" d="M117.6 10l-4.5-.7 4.2.8z"/>
        <path fill="#2D2D2D" d="M123.6 34.2l-1.6 4 4.8-.2z"/>
        <path fill="#FFF" d="M118.2 5.4l-6 1.8 5.4 2.9z"/>
        <path fill="#020202" d="M98.7 28.2l-2.4-.7 2.9 4.2z"/>
        <path fill="#605F5F" d="M128.9 25.8l2 3.7 3.3-2z"/>
        <path fill="#F9F7F7" d="M106 7.3l2 4.4.6-2.9z"/>
        <path fill="#040404" d="M124.6 38.6l-7.4 2.7 7.4-.5z"/>
        <path fill="#FFF" d="M120.6 8.8l1.2 3.9 3.6.5zM119.8 7.3l-2.2 2.8 3-1.3z"/>
        <path fill="#BDBBBB" d="M103.9 11.6l-4.2 1.3 6 2.9z"/>
        <path fill="#FFF" d="M118.2 5.4l-.6 4.7 2.2-2.8z"/>
        <path fill="#000" d="M103.1 36.5l1.3 4.8 4.3.5z"/>
        <path fill="#565656" d="M101.3 17.6l-3.3 3 1 2z"/>
        <path fill="#555454" d="M98 20.7l-1.9 1.7 3 .1z"/>
        <path fill="#181818" d="M99.3 23.1l-2.9 1.4 2.3 3.7z"/>
        <path fill="#515050" d="M130.9 29.5l-2.7 3.1 2.8 1z"/>
        <path fill="#000" d="M97.2 35.1l2.7 1.5 3.2-.1z"/>
        <path fill="#FFF" d="M113.1 9.3l-1 2.8 5.2-2z"/>
        <path fill="#F9F6F6" d="M125.4 13.2l-3.6-.5 6.3 1.8z"/>
        <path fill="#000" d="M113.6 39.6l1.4 4.6 4.8-3.7z"/>
        <path fill="#BEBCBC" d="M104.5 11l-.6.6 1.9 4.2z"/>
        <path fill="#757474" d="M127.3 25.4l1.6.4 4.1-.1z"/>
        <path fill="#FFF" d="M120.6 8.8l-3.3 1.3 4.5 2.6z"/>
        <path fill="#A2A0A0" d="M99.7 12.9l1.8 2.4 1.7 1.5z"/>
        <path fill="#000" d="M108.7 41.8l-1-.3 7.3 2.7z"/>
        <path fill="#E5E3E3" d="M108 11.7l-3.5-.8 7 3.1z"/>
        <path fill="#3D3D3D" d="M128.2 32.6l-5 1.3 4.3 2.3z"/>
        <path fill="#000" d="M101.8 35l-4.6.1 6 1.4z"/>
        <path fill="#939292" d="M127.7 23l-.4 2.4 4.9-1.4z"/>
        <path fill="#3D3D3D" d="M123.2 34l.4.2 4 2z"/>
        <path fill="#878686" d="M101.5 15.3l-.2 2.3 4.7 1.7z"/>
        <path fill="#E1DFDF" d="M128.1 14.5h-4.9l5.8 2z"/>
        <path fill="#E5E3E3" d="M108.6 8.8l-.6 3 3.4 2.2z"/>
        <path fill="#A2A1A1" d="M105.8 15.8l-6-2.9 3.4 3.9z"/>
        <path fill="#000" d="M97 31.8l.2 3.3 4.6-.1z"/>
        <path fill="#363636" d="M99 22.5l-2.9-.1 3.2.7z"/>
        <path fill="#151515" d="M118.5 37l-1.3 4.3 7.4-2.7z"/>
        <path fill="#000" d="M101.8 35l1.3 1.5 7.4 1.1z"/>
        <path fill="#C8C6C6" d="M129 16.6l-3.7 2.5 2.5 1.8z"/>
        <path fill="#000" d="M110.5 37.6l-7.4-1.1 5.6 5.3 1.8-4.2zm3 2l-4.8 2.2 6.3 2.4-1.4-4.6z"/>
        <path fill="#CDCBCB" d="M104.5 11l1.3 4.8 2.7-2.3z"/>
        <path fill="#CECCCC" d="M111.4 14l-7-3 4.1 2.5z"/>
        <path fill="#696868" d="M101.3 17.6l-2.2 5 4-1.6z"/>
        <path fill="#F8F5F5" d="M121.8 12.7l1.4 1.7h5z"/>
        <path fill="#FFF" d="M117.3 10.1l.6 3.3 4-.7z"/>
        <path fill="#5C5C5C" d="M128.9 25.8l-4 2.7 6 1z"/>
        <path fill="#070707" d="M99.2 31.7l-2.2.1 7 1z"/>
        <path fill="#FEFBFB" d="M117.3 10.1l-5.2 2 5.8 1.3z"/>
        <path fill="#717070" d="M127.3 25.4l-1.5.5 3-.1z"/>
        <path fill="#252525" d="M123.6 34.2l-3.8 2.5 2.2 1.6z"/>
        <path fill="#717070" d="M125.8 25.9l-1 2.6 4-2.7z"/>
        <path fill="#ADABAB" d="M127.8 21l-4.8-2.7 4.7 4.8z"/>
        <path fill="#6A6969" d="M106 19.3l-4.7-1.7L103 21z"/>
        <path fill="#878585" d="M103.2 16.8l-1.7-1.5 4.5 4z"/>
        <path fill="#252525" d="M119.8 36.7l-1.3.3 3.5 1.3z"/>
        <path fill="#2B2B2B" d="M99.3 23.1l-.6 5 5 1z"/>
        <path fill="#000" d="M104 32.7l-7-.9 4.8 3.2z"/>
        <path fill="#0A0A0A" d="M118.5 37l-4.3 1.6 3 2.7z"/>
        <path fill="#151515" d="M98.7 28.2l.5 3.5 4.1-.7z"/>
        <path fill="#4D4C4C" d="M130.9 29.5l-6 2 3.3 1.1z"/>
        <path fill="#E0DEDE" d="M123.2 14.4l2.1 4.7 3.7-2.5z"/>
        <path fill="#2C2C2C" d="M104.7 25.2l-5.4-2 4.5 5.8z"/>
        <path fill="#F1EFEF" d="M108.6 8.8l2.8 5.2 3.7-.7-6.5-4.5zm13.2 3.9l-4 .7 5.4 1-1.4-1.7z"/>
        <path fill="#363535" d="M123.2 34l-5.6-2.2 6 2.4z"/>
        <path fill="#4A4949" d="M99 22.5l.3.6 5.4 2z"/>
        <path fill="#000" d="M110.5 37.6l-1.8 4.2 4.9-2.2z"/>
        <path fill="#0A0A0A" d="M114.2 38.6l-.6 1 3.6 1.7z"/>
        <path fill="#151515" d="M103.8 29l-5.1-.8 4.6 2.8z"/>
        <path fill="#C7C5C5" d="M125.3 19.1l-2.3-.8 4.8 2.6z"/>
        <path fill="#070707" d="M103.3 31l-4.1.7 4.7 1z"/>
        <path fill="#B3B2B2" d="M108.5 13.5l-2.7 2.3 4.2 2.6z"/>
        <path fill="#4A4949" d="M103 21l-4 1.5 5.7 2.7z"/>
        <path fill="#FCFAFA" d="M112.1 12l3 1.3 2.8.1z"/>
        <path fill="#B2B1B1" d="M105.8 15.8l-2.6 1 6.8 1.6z"/>
        <path fill="#000" d="M114.2 38.6l-3.7-1 3 2z"/>
        <path fill="#5C5B5B" d="M124.9 28.5v3l6-2z"/>
        <path fill="#4C4C4C" d="M124.9 31.5l-1.7 2.4 5-1.3z"/>
        <path fill="#8F8D8D" d="M127.7 23l-4.1.7 3.7 1.7.4-2.3zm-4.1.7l2.2 2.2 1.5-.5-3.7-1.7z"/>
        <path fill="#979696" d="M103.2 16.8l2.8 2.5 1.2-1z"/>
        <path fill="#353535" d="M117.6 31.8l2.2 4.9 3.8-2.5z"/>
        <path fill="#1A1A1A" d="M115.6 37.6l-1.4 1 4.3-1.6z"/>
        <path fill="#6A6969" d="M125.8 25.9l-6.6-1.6 5.7 4.2z"/>
        <path fill="#282828" d="M103.8 29l-.5 2 5.4-2z"/>
        <path fill="#7B7A7A" d="M106 19.3l-3 1.7 5.2 2.2z"/>
        <path fill="#C3C1C1" d="M108.5 13.5l1.5 4.9 5.4-3z"/>
        <path fill="#0B0B0B" d="M104 32.7l-2.2 2.3 8.2 2.6z"/>
        <path fill="#989696" d="M110 18.4l-6.8-1.6 4 1.5z"/>
        <path fill="#454545" d="M119.2 29.2l-1.6 2.6 5.6 2.1z"/>
        <path fill="#ABAAAA" d="M123 18.3l.6 5.4 4-.6z"/>
        <path fill="#888686" d="M123.6 23.7l-5.3-1.8 7.5 4z"/>
        <path fill="#7B7A7A" d="M107.2 18.3l-1.2 1 2.2 3.9z"/>
        <path fill="#C3C1C1" d="M115.3 13.2l-6.8.3 7 2z"/>
        <path fill="#888787" d="M118.3 21.9l1 2.4 6.5 1.6z"/>
        <path fill="#2A2A2A" d="M117.6 31.8l-5 .3 7.2 4.6z"/>
        <path fill="#D9D7D7" d="M123.2 14.4l-3-1.3 5.1 6z"/>
        <path fill="#0C0C0C" d="M115.6 37.6H110l4.2 1z"/>
        <path fill="#3E3D3D" d="M104.7 25.2l-1 3.8 5.4-.4z"/>
        <path fill="#B6B4B4" d="M119.1 18.2l-3.7-2.7 3.8 4.2z"/>
        <path fill="#454444" d="M124.9 31.5l-5.7-2.3 4 4.7z"/>
        <path fill="#292828" d="M109.1 28.6l-5.3.4h4.9z"/>
        <path fill="#5C5C5C" d="M103 21l1.7 4.2 5.7.4z"/>
        <path fill="#2B2B2B" d="M108.7 29l1.6 3.1h2.3z"/>
        <path fill="#3A3939" d="M112.2 31.2l.4.9 5-.3z"/>
        <path fill="#8B8A8A" d="M107.2 18.3l1 4.9 4.3 1.4z"/>
        <path fill="#1A1A1A" d="M108.7 29l-5.4 2 7 1.1z"/>
        <path fill="#191919" d="M103.3 31l.6 1.7 6.4-.6z"/>
        <path fill="#5D5C5C" d="M108.2 23.2L103 21l7.4 4.6z"/>
        <path fill="#545353" d="M124.9 28.5l-5.7-2.1 5.7 5.1z"/>
        <path fill="#A4A3A3" d="M119.2 19.7l-1 2.2 5.4 1.8z"/>
        <path fill="#0B0B0B" d="M110.3 32.1l-6.4.6 6 5z"/>
        <path fill="#A4A3A3" d="M123 18.3l-3.8 1.4 4.4 4z"/>
        <path fill="#BFBEBE" d="M119.1 18.2l.1 1.5 3.8-1.4z"/>
        <path fill="#292929" d="M112.6 32.1l3 5.5 4.2-.9z"/>
        <path fill="#1C1B1B" d="M112.6 32.1h-2.3l5.3 5.5z"/>
        <path fill="#B5B4B4" d="M115.4 15.5l.4 4.1 3.4.1z"/>
        <path fill="#696868" d="M119.2 24.3v2l5.7 2.2z"/>
        <path fill="#2B2B2B" d="M112.2 31.2l-3.5-2.2 4 3.1z"/>
        <path fill="#3A3939" d="M119.2 29.2l-7 2 5.4.6z"/>
        <path fill="#CFCDCD" d="M115.3 13.2l.1 2.3 3.7 2.7z"/>
        <path fill="#1B1B1B" d="M110.3 32.1l-.3 5.5h5.6z"/>
        <path fill="#A8A6A6" d="M115.4 15.5l-5.4 2.9 5.8 1.2z"/>
        <path fill="#A7A5A5" d="M110 18.4l-2.8-.1 8.6 1.3z"/>
        <path fill="#D8D6D6" d="M120.3 13l-1.2 5.2 6.2 1z"/>
        <path fill="#9A9898" d="M119.2 19.7h-3.4l2.5 2.2z"/>
        <path fill="#8B8A8A" d="M115.8 19.6l-8.6-1.3 5.3 6.3z"/>
        <path fill="#7C7B7B" d="M118.3 21.9l-5.8 2.7 6.7-.3z"/>
        <path fill="#545353" d="M119.2 26.4v2.8l5.7 2.3z"/>
        <path fill="#CECDCD" d="M120.3 13l-5 .2 3.8 5z"/>
        <path fill="#999797" d="M115.8 19.6l-3.3 5 5.8-2.7z"/>
        <path fill="#393939" d="M109.1 28.6l-.4.4 3.5 2.2z"/>
        <path fill="#6D6C6C" d="M112.5 24.6l-4.3-1.4 7.4 4z"/>
        <path fill="#3D3D3D" d="M110.4 25.6l-5.7-.4 4.4 3.4z"/>
        <path fill="#373737" d="M113.2 33.1l.4 1 1 .4z"/>
        <path fill="#484848" d="M119.2 26.4l-4.4.7 4.4 2z"/>
        <path fill="#FFF" d="M114.6 31.9l-1 .3zM114.6 31.9l1 .4-1-.5z"/>
        <path fill="#484747" d="M114.8 27.1l-2.6 4.1 7-2z"/>
        <path fill="#7B7A7A" d="M112.5 24.6l3 2.6 3.7-3z"/>
        <path fill="#6C6B6B" d="M108.2 23.2l2.2 2.4 5.2 1.6z"/>
        <path fill="#151414" d="M116 33.2l-1.5.6 1 .3z"/>
        <path fill="#5D5C5C" d="M119.2 24.3l-3.6 3 3.6-1z"/>
        <path fill="#151414" d="M114.5 33.8v.7l1-.4z"/>
        <path fill="#151515" d="M113.6 32.2l-.4 1 1.3.6z"/>
        <path fill="#373737" d="M114.5 33.8l-1.3-.7 1.3 1.4z"/>
        <path fill="#727171" d="M115.6 32.3l-1 .4 1.4.5z"/>
        <path fill="#EEECEC" d="M114.6 31.9l-1 .3 1 .5z"/>
        <path fill="#FFF" d="M114.6 31.9v.8l1-.4z"/>
        <path fill="#393838" d="M114.8 27.1l-5.7 1.5 3 2.6z"/>
        <path fill="#727171" d="M114.6 32.7v1.1l1.4-.6z"/>
        <path fill="#4D4C4C" d="M110.4 25.6l-1.3 3 5.7-1.5z"/>
        <path fill="#151515" d="M114.6 32.7l-1-.5 1 1.6z"/>
        <path fill="#4D4D4D" d="M115.6 27.2l-5.2-1.6 4.4 1.5z"/>
        <path fill="#393838" d="M138.7 34.8l1 .3-1.4-1.3z"/>
        <path fill="#7E7D7D" d="M139.7 35.3v-.2l-1-.3z"/>
        <path fill="#373737" d="M139.7 35.3l1-.4-1 .2z"/>
        <path fill="#505050" d="M138.3 33.8l1.5.4-1-1.4z"/>
        <path fill="#FFF" d="M138.7 32.8l1.1.3v-.6z"/>
        <path fill="#292828" d="M140.8 35l.5-1-1.5.2z"/>
        <path fill="#FFF" d="M139.8 33.1l1-.2-1-.4z"/>
        <path fill="#9E9C9C" d="M141.3 34l-.4-1-1 .1z"/>
        <path fill="#393838" d="M139.7 35.1v-.9l-1.4-.4z"/>
        <path fill="#292828" d="M139.7 35.1l1-.2-1-.7z"/>
        <path fill="#515050" d="M139.8 34.2v-1.1l-1-.3z"/>
        <path fill="#9D9C9C" d="M139.8 34.2l1.5-.2-1.5-.9z"/>
        <path fill="#3E3D3D" d="M51.6 33.9l-1.3 1h1z"/>
        <path fill="#F0EFEF" d="M50.9 33l-1 .8h1.7z"/>
        <path fill="#3E3D3D" d="M50.3 34.9l.1.7 1-.7z"/>
        <path fill="#000" d="M48.4 34.7l.7.8 1.3.1z"/>
        <path fill="#E8E7E7" d="M49.6 33l-1 .7z"/>
        <path fill="#F0EEEE" d="M50 33.8l.3 1 1.3-1z"/>
        <path fill="#FFF" d="M49.6 33l.4.8.9-.7z"/>
        <path fill="#000" d="M50.3 34.9l-2-.2 2.1 1z"/>
        <path fill="#FFF" d="M49.6 33l-1 .7H50z"/>
        <path fill="#343333" d="M48.6 33.7l-.2 1 1.9.2z"/>
        <path fill="#858282" d="M224 33.8l-.5.7.7 1.4z"/>
        <path fill="#343333" d="M50 33.8l-1.4-.1 1.7 1.2z"/>
        <path fill="#615F5F" d="M145.6 33.6h-.1l-.3 1.4.4-1.4zm-.5 2l.5-2-.4 1.4v.6z"/>
        <path fill="#858282" d="M225 35.7l-1-2 .2 2.2z"/>
        <path fill="#3C3B3B" d="M225 35.7l-.8.2h1.5z"/>
        <path fill="#585656" d="M145.8 35.7h-.7l2.1.2z"/>
        <path fill="#868484" d="M225.3 33.6l-1.3.2 1 1.9z"/>
        <path fill="#3C3B3B" d="M227.1 35.8l-2.2-.1.8.2z"/>
        <path fill="#333232" d="M146.1 34.3l-.5-.7-.5 2z"/>
        <path fill="#575656" d="M147.3 35.9l-1.5-.2 1.4.2z"/>
        <path fill="#F1EDED" d="M147.6 34.5v-.6l-2-.3z"/>
        <path fill="#333232" d="M145.8 35.7l.3-1.4-1 1.3z"/>
        <path fill="#868484" d="M226 35l-.7-1.4-.4 2.1z"/>
        <path fill="#020202" d="M226 35l-1 .7h2.1z"/>
        <path fill="#F4F0F0" d="M226.8 34.1v-.4l-1.5-.1z"/>
        <path fill="#F1EDED" d="M146.1 34.3l1.5.2-2-.9z"/>
        <path fill="#040404" d="M146.8 35.2l-1 .5 1.5.2z"/>
        <path fill="#B4B0B0" d="M226.8 34.1l-1.5-.5.7 1.4z"/>
        <path fill="#020202" d="M227.6 35H226l1.1.8z"/>
        <path fill="#8D8A8A" d="M226.8 34.1l.8 1-.7-1.4z"/>
        <path fill="#2D2C2C" d="M146.8 35.2l.5.7.3-1.4z"/>
        <path fill="#111" d="M146.8 35.2l-.7-1-.3 1.5z"/>
        <path fill="#888686" d="M146.8 35.2l.8-.7-1.5-.2z"/>
        <path fill="#4C4B4B" d="M226.8 34.1l-.8.9h1.6z"/>
        <path fill="#FFF" d="M211.8 38.7l2-.5-.6-.2z"/>
        <path fill="#A9A8A8" d="M211.6 40l2.7-.7-2.5-.6z"/>
        <path fill="#FFF" d="M213.7 38.2l1.2.2-1.7-.4z"/>
        <path fill="#4C4B4B" d="M212.6 41l2-.4-3-.7z"/>
        <path fill="#A9A8A8" d="M214.3 39.3l-.6-1-1.9.4z"/>
        <path fill="#EEECEC" d="M216 39.5l-1-1.1-1.3-.2z"/>
        <path fill="#454545" d="M214.3 41.4l.3-.8-2 .5z"/>
        <path fill="#4C4B4B" d="M214.6 40.6l-.3-1.3-2.7.6z"/>
        <path fill="#EEECEC" d="M214.3 39.3l1.7.2-2.3-1.3z"/>
        <path fill="#000" d="M214.3 41.4l1.4-.6-1.1-.2z"/>
        <path fill="#5F5E5E" d="M215.7 40.8l.3-1.3-1.7-.2 1.4 1.5zm-1.1-.2l1.1.2-1.4-1.5.3 1.3z"/>
        <path fill="#787777" d="M4 42.7l.4-1.4v-1z"/>
        <path fill="#FFF" d="M2.2 39.7l2.2.6-.7-.2z"/>
        <path fill="#777" d="M4 41.3v1.4l.4-2.4z"/>
        <path fill="#4F4F4F" d="M2.7 43.3l1.3-.6v-1.4z"/>
        <path fill="#FFF" d="M4 41.3l.4-1-2.2-.6L4 41.3zm-3.1-1l3 1-1.7-1.6-1.3.7z"/>
        <path fill="#4F4F4F" d="M2.6 42.4v1L4 41.2z"/>
        <path fill="#1D1D1D" d="M1.2 43l1.5.3v-1z"/>
        <path fill="#FFF" d="M2.6 42.4L4 41.3l-3.1-1z"/>
        <path fill="#000" d="M1.2 43l-.8-1.3v1z"/>
        <path fill="#FFF" d="M.4 41.7l2.2.7-1.7-2z"/>
        <path fill="#3D3D3D" d="M1.2 43l1.4-.6-2.2-.7z"/>
        <path fill="#303030" d="M114.5 43.2l-.8 1.1.3.3z"/>
        <path fill="#838383" d="M113.4 45.4l-1.8-.3 1.2.3z"/>
        <path fill="#DADADA" d="M114 42l-.5.8 1 .4z"/>
        <path fill="#FFF" d="M112.8 41.8h-.6l-.6.8z"/>
        <path fill="#303030" d="M113.7 44.3l-.3 1 .6-.7z"/>
        <path fill="#000" d="M111 44l.6 1.1 1.8.3z"/>
        <path fill="#FFF" d="M112.8 41.8l.7 1 .5-.7z"/>
        <path fill="#DADADA" d="M113.5 42.8l.2 1.5.8-1z"/>
        <path fill="#FFF" d="M112.8 41.8l-1.2.8 1.9.2z"/>
        <path fill="#000" d="M113.7 44.3l-2.6-.3 2.3 1.4z"/>
        <path fill="#434343" d="M111.6 42.6L111 44l2.6.3-2.1-1.7zm1.9.2l-2-.2 2.2 1.7-.2-1.5z"/>
        <path fill="#FAFAFA" d="M69.4 49.7v-1.2l-.8-1.8z"/>
        <path fill="#FFF" d="M68.3 47.2l.3-.5-2 .4z"/>
        <path fill="#FAFAFA" d="M68.3 47.2l1.1 2.5-.8-3z"/>
        <path fill="#FFF" d="M65.4 47.7l2.9-.5-1.8-.1z"/>
        <path fill="#BAB9B9" d="M68.3 50.3l1.1-.6-1.1-2.5z"/>
        <path fill="#FFF" d="M67.5 48.6l.8-1.4-3 .5z"/>
        <path fill="#BABABA" d="M67.5 48.6l.8 1.7v-3.1z"/>
        <path fill="#131212" d="M66.6 50l-.4.7 2.1-.4z"/>
        <path fill="#FFF" d="M65.4 49l2-.4-2-.9z"/>
        <path fill="#000" d="M66.6 50l-1.2-1 .8 1.7z"/>
        <path fill="#505050" d="M66.6 50l1.7.3-.8-1.7z"/>
        <path fill="#5A5A5A" d="M66.6 50l.9-1.4-2.1.3z"/>
        <path fill="#FFF" d="M146.7 64.9l-1.4-2-1.9-.8z"/>
        <path fill="#A2A0A0" d="M140.6 65.2l3.3-1.5-2.8-.5z"/>
        <path fill="#A2A1A1" d="M144 63.7l-.6-1.6-2.3 1z"/>
        <path fill="#FFF" d="M144 63.7l2.7 1.2-3.3-2.8z"/>
        <path fill="#484747" d="M144.2 68l-2.3-.8 2 .8z"/>
        <path fill="#A5A4A4" d="M146.2 67l.5-2.1-2.8-1.2z"/>
        <path fill="#2F2E2E" d="M141.9 67.2l2.3-1-3.6-1 1.3 2zm2.3-1l-.3-2.5-3.3 1.5 3.6 1z"/>
        <path fill="#000" d="M144.2 68V66l-2.3 1z"/>
        <path fill="#151515" d="M144.2 68l2-1-2-.9z"/>
        <path fill="#A5A4A4" d="M144.2 66.1l2 .9-2.3-3.3z"/>
    </g>
</svg>
